<svg width="1210" height="1119" xmlns="http://www.w3.org/2000/svg" xmlns:xlink="http://www.w3.org/1999/xlink" xml:space="preserve" overflow="hidden"><defs><clipPath id="clip0"><rect x="694" y="272" width="1210" height="1119"/></clipPath></defs><g clip-path="url(#clip0)" transform="translate(-694 -272)"><path d="M1039 297 1039 1389.14" stroke="#000000" stroke-width="2.29167" stroke-miterlimit="8" fill="none" fill-rule="evenodd"/><path d="M1559 297 1559 1389.14" stroke="#000000" stroke-width="2.29167" stroke-miterlimit="8" fill="none" fill-rule="evenodd"/><path d="M1299 297 1299 1389.14" stroke="#000000" stroke-width="2.29167" stroke-miterlimit="8" fill="none" fill-rule="evenodd"/><path d="M1845.14 546 753 546" stroke="#000000" stroke-width="2.29167" stroke-miterlimit="8" fill="none" fill-rule="evenodd"/><path d="M1845.14 863 753 863.001" stroke="#000000" stroke-width="2.29167" stroke-miterlimit="8" fill="none" fill-rule="evenodd"/><path d="M1845.14 1159 753 1159" stroke="#000000" stroke-width="2.29167" stroke-miterlimit="8" fill="none" fill-rule="evenodd"/><path d="M1509.48 510.655 1532.61 486.555 1559.5 512.357 1586.39 486.555 1609.52 510.655 1583.62 535.5 1609.52 560.345 1586.39 584.445 1559.5 558.642 1532.61 584.445 1509.48 560.345 1535.38 535.5Z" stroke="#FFFFFF" stroke-width="4.58333" stroke-miterlimit="8" fill-rule="evenodd"/><path d="M990.204 838.615 1013.41 814.594 1040 840.282 1066.59 814.594 1089.8 838.615 1064.04 863.5 1089.8 888.385 1066.59 912.406 1040 886.718 1013.41 912.406 990.204 888.385 1015.96 863.5Z" stroke="#FFFFFF" stroke-width="4.58333" stroke-miterlimit="8" fill-rule="evenodd"/><text font-family="Calibri,Calibri_MSFontService,sans-serif" font-weight="700" font-size="128" transform="matrix(1 0 0 1 771.817 736)">X</text><text font-family="Calibri,Calibri_MSFontService,sans-serif" font-weight="700" font-size="128" transform="matrix(1 0 0 1 1760.51 431)">Y</text><path d="M0.0586836-1.14433 12.3022-0.516455 24.4753 1.31266 36.5124 4.33768 48.1682 8.30697 59.5059 13.346 70.3358 19.2016 80.6023 25.878 90.1766 33.3107 98.9956 41.3738 107.002 50.0106 114.006 59.16 119.942 68.6948 124.767 78.6004 126.856 86.5939 124.639 87.1732 122.579 79.2896 122.657 79.5018 117.907 69.7518 117.965 69.8556 112.09 60.4181 112.153 60.509 105.215 51.4465 105.285 51.529 97.3472 42.9665 97.4143 43.0332 88.6643 35.0332 88.7349 35.0926 79.2349 27.7176 79.3128 27.7731 69.1253 21.1481 69.205 21.1954 58.455 15.3829 58.5346 15.4221 47.2846 10.4221 47.3806 10.4597 35.8181 6.52216 35.9082 6.54878 23.9707 3.54878 24.0797 3.57061 12.0172 1.75811 12.1288 1.76933-0.0586836 1.14433ZM138.369 79.759 130.123 109.379 111.375 85.01Z" transform="matrix(-1 1.22465e-16 1.22465e-16 1 1727.12 388)"/><path d="M836.055 692.856 843.861 693.233 851.65 694.373 859.31 696.146 866.778 698.614 873.983 701.648 880.938 705.189 887.454 709.237 893.589 713.728 899.226 718.605 904.298 723.867 908.739 729.387 912.551 735.168 915.676 741.162 917.914 747.302 919.323 753.578 919.83 759.845 920.33 766.033 920.306 765.874 921.681 771.999 921.639 771.858 923.827 777.858 923.768 777.725 926.831 783.662 926.769 783.557 930.519 789.244 930.455 789.157 934.83 794.594 934.753 794.507 939.815 799.632 939.75 799.571 945.312 804.384 945.244 804.329 951.244 808.766 951.163 808.712 957.663 812.712 957.594 812.672 964.406 816.235 964.312 816.191 971.437 819.128 971.264 819.073 979.026 820.908 978.499 823.138 970.648 821.282 963.39 818.29 956.496 814.684 949.92 810.638 943.846 806.145 938.216 801.275 933.081 796.076 928.636 790.551 924.822 784.767 921.698 778.711 919.461 772.573 918.052 766.298 917.545 760.03 917.045 753.842 917.069 754.001 915.694 747.876 915.736 748.018 913.548 742.018 913.609 742.155 910.546 736.28 910.606 736.381 906.856 730.693 906.92 730.781 902.545 725.343 902.612 725.42 897.612 720.233 897.688 720.304 892.125 715.492 892.198 715.55 886.136 711.112 886.208 711.161 879.77 707.161 879.855 707.209 872.98 703.709 873.055 703.744 865.93 700.744 866.015 700.776 858.64 698.338 858.742 698.366 851.179 696.616 851.272 696.634 843.584 695.509 843.695 695.52 835.945 695.145ZM976.534 807.702 1001.36 825.842 971.952 834.817Z"/><path d="M1558.69 863 1039 863.001" stroke="#EF19D0" stroke-width="10.3125" stroke-miterlimit="8" fill="none" fill-rule="evenodd"/><path d="M1557 546 1557 857.811" stroke="#EF19D0" stroke-width="10.3125" stroke-miterlimit="8" fill="none" fill-rule="evenodd"/><path d="M0 0 515.891 330.309" stroke="#00B050" stroke-width="10.3125" stroke-miterlimit="8" fill="none" fill-rule="evenodd" transform="matrix(1 0 0 -1 1039 863.309)"/><rect x="1235" y="1059" width="541" height="167" fill="#FFFFFF"/><text fill="#00B050" font-family="Calibri,Calibri_MSFontService,sans-serif" font-weight="400" font-size="55" transform="matrix(1 0 0 1 1268.11 1127)">Euklidische Distanz</text><text fill="#EF19D0" font-family="Calibri,Calibri_MSFontService,sans-serif" font-weight="400" font-size="55" transform="matrix(1 0 0 1 1268.11 1193)">Manhattan Distanz</text></g></svg>