<svg width="1863" height="1910" xmlns="http://www.w3.org/2000/svg" xmlns:xlink="http://www.w3.org/1999/xlink" xml:space="preserve" overflow="hidden"><defs><clipPath id="clip0"><rect x="1240" y="278" width="1863" height="1910"/></clipPath></defs><g clip-path="url(#clip0)" transform="translate(-1240 -278)"><path d="M1242.5 1233C1242.5 706.949 1658.43 280.5 2171.5 280.5 2684.57 280.5 3100.5 706.949 3100.5 1233 3100.5 1759.05 2684.57 2185.5 2171.5 2185.5 1658.43 2185.5 1242.5 1759.05 1242.5 1233Z" stroke="#000000" stroke-width="4.58333" stroke-miterlimit="8" fill="#F69CED" fill-rule="evenodd"/><path d="M1412.5 1397C1412.5 961.523 1752.32 608.5 2171.5 608.5 2590.68 608.5 2930.5 961.523 2930.5 1397 2930.5 1832.48 2590.68 2185.5 2171.5 2185.5 1752.32 2185.5 1412.5 1832.48 1412.5 1397Z" stroke="#000000" stroke-width="4.58333" stroke-miterlimit="8" fill="#FFD966" fill-rule="evenodd"/><path d="M1519.5 1560.5C1519.5 1215.32 1811.41 935.5 2171.5 935.5 2531.59 935.5 2823.5 1215.32 2823.5 1560.5 2823.5 1905.68 2531.59 2185.5 2171.5 2185.5 1811.41 2185.5 1519.5 1905.68 1519.5 1560.5Z" stroke="#000000" stroke-width="4.58333" stroke-miterlimit="8" fill="#A9D18E" fill-rule="evenodd"/><text font-family="Calibri,Calibri_MSFontService,sans-serif" font-weight="400" font-size="110" transform="matrix(1 0 0 1 1706.77 521)">Künstliche Intelligenz</text><text font-family="Calibri,Calibri_MSFontService,sans-serif" font-weight="400" font-size="110" transform="matrix(1 0 0 1 1769.73 868)">Machine</text><text font-family="Calibri,Calibri_MSFontService,sans-serif" font-weight="400" font-size="110" transform="matrix(1 0 0 1 2183.38 868)">Learning</text><text font-family="Calibri,Calibri_MSFontService,sans-serif" font-weight="400" font-size="110" transform="matrix(1 0 0 1 1851.72 1433)">Deep Learning</text></g></svg>