<svg width="2585" height="869" xmlns="http://www.w3.org/2000/svg" xmlns:xlink="http://www.w3.org/1999/xlink" xml:space="preserve" overflow="hidden"><defs><clipPath id="clip0"><rect x="763" y="1150" width="2585" height="869"/></clipPath></defs><g clip-path="url(#clip0)" transform="translate(-763 -1150)"><path d="M789.5 1175.9C789.5 1165.74 797.738 1157.5 807.899 1157.5L2816.1 1157.5C2826.26 1157.5 2834.5 1165.74 2834.5 1175.9L2834.5 1323.1C2834.5 1333.26 2826.26 1341.5 2816.1 1341.5L807.899 1341.5C797.738 1341.5 789.5 1333.26 789.5 1323.1Z" stroke="#000000" stroke-width="4.58333" stroke-miterlimit="8" fill="#A9D18E" fill-rule="evenodd"/><text font-family="Calibri,Calibri_MSFontService,sans-serif" font-weight="400" font-size="101" transform="matrix(1 0 0 1 824.55 1277)">Bereitstellen von Informationen</text><path d="M960.5 1392.9C960.5 1382.74 968.738 1374.5 978.899 1374.5L2987.1 1374.5C2997.26 1374.5 3005.5 1382.74 3005.5 1392.9L3005.5 1540.1C3005.5 1550.26 2997.26 1558.5 2987.1 1558.5L978.899 1558.5C968.738 1558.5 960.5 1550.26 960.5 1540.1Z" stroke="#000000" stroke-width="4.58333" stroke-miterlimit="8" fill="#A9D18E" fill-rule="evenodd"/><text font-family="Calibri,Calibri_MSFontService,sans-serif" font-weight="400" font-size="101" transform="matrix(1 0 0 1 995.787 1495)">Festlegung des Grundlayouts des Netzes</text><path d="M1129.5 1610.9C1129.5 1600.74 1137.74 1592.5 1147.9 1592.5L3155.1 1592.5C3165.26 1592.5 3173.5 1600.74 3173.5 1610.9L3173.5 1758.1C3173.5 1768.26 3165.26 1776.5 3155.1 1776.5L1147.9 1776.5C1137.74 1776.5 1129.5 1768.26 1129.5 1758.1Z" stroke="#000000" stroke-width="4.58333" stroke-miterlimit="8" fill="#A9D18E" fill-rule="evenodd"/><text font-family="Calibri,Calibri_MSFontService,sans-serif" font-weight="400" font-size="101" transform="matrix(1 0 0 1 1164.47 1713)">Training mit geeigneten Lernverfahren</text><path d="M1300.5 1828.9C1300.5 1818.74 1308.74 1810.5 1318.9 1810.5L3327.1 1810.5C3337.26 1810.5 3345.5 1818.74 3345.5 1828.9L3345.5 1976.1C3345.5 1986.26 3337.26 1994.5 3327.1 1994.5L1318.9 1994.5C1308.74 1994.5 1300.5 1986.26 1300.5 1976.1Z" stroke="#000000" stroke-width="4.58333" stroke-miterlimit="8" fill="#A9D18E" fill-rule="evenodd"/><text font-family="Calibri,Calibri_MSFontService,sans-serif" font-weight="400" font-size="101" transform="matrix(1 0 0 1 1335.71 1930)">Ausgabe als in Vektor kodierter Antwort</text><path d="M2714.5 1363.95 2741.5 1363.95 2741.5 1298.5 2807.5 1298.5 2807.5 1363.95 2834.5 1363.95 2774.5 1417.5Z" stroke="#000000" stroke-width="4.58333" stroke-miterlimit="8" stroke-opacity="0.901961" fill="#FFFFFF" fill-rule="evenodd" fill-opacity="0.901961"/><path d="M2885.5 1581.5 2912.5 1581.5 2912.5 1515.5 2978.5 1515.5 2978.5 1581.5 3005.5 1581.5 2945.5 1635.5Z" stroke="#000000" stroke-width="4.58333" stroke-miterlimit="8" stroke-opacity="0.901961" fill="#FFFFFF" fill-rule="evenodd" fill-opacity="0.901961"/><path d="M3054.5 1799.95 3081.27 1799.95 3081.27 1733.5 3146.73 1733.5 3146.73 1799.95 3173.5 1799.95 3114 1853.5Z" stroke="#000000" stroke-width="4.58333" stroke-miterlimit="8" stroke-opacity="0.901961" fill="#FFFFFF" fill-rule="evenodd" fill-opacity="0.901961"/></g></svg>