<svg width="1210" height="1131" xmlns="http://www.w3.org/2000/svg" xmlns:xlink="http://www.w3.org/1999/xlink" xml:space="preserve" overflow="hidden"><defs><clipPath id="clip0"><rect x="576" y="514" width="1210" height="1131"/></clipPath></defs><g clip-path="url(#clip0)" transform="translate(-576 -514)"><path d="M648.5 911.5C648.5 877.258 677.602 849.5 713.5 849.5 749.399 849.5 778.5 877.258 778.5 911.5 778.5 945.742 749.399 973.5 713.5 973.5 677.602 973.5 648.5 945.742 648.5 911.5Z" stroke="#000000" stroke-width="4.58333" stroke-miterlimit="8" fill="#FFE699" fill-rule="evenodd"/><path d="M648.5 1150C648.5 1116.03 677.602 1088.5 713.5 1088.5 749.399 1088.5 778.5 1116.03 778.5 1150 778.5 1183.97 749.399 1211.5 713.5 1211.5 677.602 1211.5 648.5 1183.97 648.5 1150Z" stroke="#000000" stroke-width="4.58333" stroke-miterlimit="8" fill="#FFE699" fill-rule="evenodd"/><path d="M648.5 1388C648.5 1354.03 677.602 1326.5 713.5 1326.5 749.399 1326.5 778.5 1354.03 778.5 1388 778.5 1421.97 749.399 1449.5 713.5 1449.5 677.602 1449.5 648.5 1421.97 648.5 1388Z" stroke="#000000" stroke-width="4.58333" stroke-miterlimit="8" fill="#FFE699" fill-rule="evenodd"/><path d="M952.5 709C952.5 675.035 981.602 647.5 1017.5 647.5 1053.4 647.5 1082.5 675.035 1082.5 709 1082.5 742.965 1053.4 770.5 1017.5 770.5 981.602 770.5 952.5 742.965 952.5 709Z" stroke="#000000" stroke-width="4.58333" stroke-miterlimit="8" fill="#A9D18E" fill-rule="evenodd"/><path d="M952.5 928C952.5 894.035 981.602 866.5 1017.5 866.5 1053.4 866.5 1082.5 894.035 1082.5 928 1082.5 961.966 1053.4 989.5 1017.5 989.5 981.602 989.5 952.5 961.966 952.5 928Z" stroke="#000000" stroke-width="4.58333" stroke-miterlimit="8" fill="#A9D18E" fill-rule="evenodd"/><path d="M952.5 1147.5C952.5 1113.26 981.602 1085.5 1017.5 1085.5 1053.4 1085.5 1082.5 1113.26 1082.5 1147.5 1082.5 1181.74 1053.4 1209.5 1017.5 1209.5 981.602 1209.5 952.5 1181.74 952.5 1147.5Z" stroke="#000000" stroke-width="4.58333" stroke-miterlimit="8" fill="#A9D18E" fill-rule="evenodd"/><path d="M952.5 1361.5C952.5 1327.26 981.602 1299.5 1017.5 1299.5 1053.4 1299.5 1082.5 1327.26 1082.5 1361.5 1082.5 1395.74 1053.4 1423.5 1017.5 1423.5 981.602 1423.5 952.5 1395.74 952.5 1361.5Z" stroke="#000000" stroke-width="4.58333" stroke-miterlimit="8" fill="#A9D18E" fill-rule="evenodd"/><path d="M952.5 1581C952.5 1547.03 981.602 1519.5 1017.5 1519.5 1053.4 1519.5 1082.5 1547.03 1082.5 1581 1082.5 1614.97 1053.4 1642.5 1017.5 1642.5 981.602 1642.5 952.5 1614.97 952.5 1581Z" stroke="#000000" stroke-width="4.58333" stroke-miterlimit="8" fill="#A9D18E" fill-rule="evenodd"/><path d="M1256.5 1024C1256.5 990.034 1285.6 962.5 1321.5 962.5 1357.4 962.5 1386.5 990.034 1386.5 1024 1386.5 1057.97 1357.4 1085.5 1321.5 1085.5 1285.6 1085.5 1256.5 1057.97 1256.5 1024Z" stroke="#000000" stroke-width="4.58333" stroke-miterlimit="8" fill="#A9D18E" fill-rule="evenodd"/><path d="M1256.5 1238C1256.5 1204.03 1285.6 1176.5 1321.5 1176.5 1357.4 1176.5 1386.5 1204.03 1386.5 1238 1386.5 1271.97 1357.4 1299.5 1321.5 1299.5 1285.6 1299.5 1256.5 1271.97 1256.5 1238Z" stroke="#000000" stroke-width="4.58333" stroke-miterlimit="8" fill="#A9D18E" fill-rule="evenodd"/><path d="M0 0 173.869 202.965" stroke="#000000" stroke-width="2.29167" stroke-miterlimit="8" fill="none" fill-rule="evenodd" transform="matrix(1 0 0 -1 778 910.965)"/><path d="M951.869 927.325 778 911" stroke="#000000" stroke-width="2.29167" stroke-miterlimit="8" fill="none" fill-rule="evenodd"/><path d="M0 0 173.869 2.48222" stroke="#000000" stroke-width="2.29167" stroke-miterlimit="8" fill="none" fill-rule="evenodd" transform="matrix(1 0 0 -1 778 1149.48)"/><path d="M0 0 173.868 26.4361" stroke="#000000" stroke-width="2.29167" stroke-miterlimit="8" fill="none" fill-rule="evenodd" transform="matrix(-1 0 0 1 951.868 1361)"/><path d="M0 0 173.869 441.062" stroke="#000000" stroke-width="2.29167" stroke-miterlimit="8" fill="none" fill-rule="evenodd" transform="matrix(1 0 0 -1 778 1149.06)"/><path d="M778 1149 951.868 1360.66" stroke="#000000" stroke-width="2.29167" stroke-miterlimit="8" fill="none" fill-rule="evenodd"/><path d="M778 1149 951.868 1579.95" stroke="#000000" stroke-width="2.29167" stroke-miterlimit="8" fill="none" fill-rule="evenodd"/><path d="M778 911 951.869 1146.62" stroke="#000000" stroke-width="2.29167" stroke-miterlimit="8" fill="none" fill-rule="evenodd"/><path d="M778 911 951.868 1580.05" stroke="#000000" stroke-width="2.29167" stroke-miterlimit="8" fill="none" fill-rule="evenodd"/><path d="M0 0 173.869 679.16" stroke="#000000" stroke-width="2.29167" stroke-miterlimit="8" fill="none" fill-rule="evenodd" transform="matrix(1 0 0 -1 778 1387.16)"/><path d="M778 1387 951.868 1579.85" stroke="#000000" stroke-width="2.29167" stroke-miterlimit="8" fill="none" fill-rule="evenodd"/><path d="M0 0 173.869 459.87" stroke="#000000" stroke-width="2.29167" stroke-miterlimit="8" fill="none" fill-rule="evenodd" transform="matrix(1 0 0 -1 778 1387.87)"/><path d="M0 0 173.869 240.58" stroke="#000000" stroke-width="2.29167" stroke-miterlimit="8" fill="none" fill-rule="evenodd" transform="matrix(1 0 0 -1 778 1387.58)"/><path d="M778 911 951.868 1360.76" stroke="#000000" stroke-width="2.29167" stroke-miterlimit="8" fill="none" fill-rule="evenodd"/><path d="M0 0 173.869 221.772" stroke="#000000" stroke-width="2.29167" stroke-miterlimit="8" fill="none" fill-rule="evenodd" transform="matrix(1 0 0 -1 778 1149.77)"/><path d="M1082 708 1255.87 1023.1" stroke="#000000" stroke-width="2.29167" stroke-miterlimit="8" fill="none" fill-rule="evenodd"/><path d="M1255.87 1023.81 1082 928" stroke="#000000" stroke-width="2.29167" stroke-miterlimit="8" fill="none" fill-rule="evenodd"/><path d="M0 0 173.866 123.484" stroke="#000000" stroke-width="2.29167" stroke-miterlimit="8" fill="none" fill-rule="evenodd" transform="matrix(-1 0 0 1 1255.87 1023)"/><path d="M0 0 173.867 337.627" stroke="#000000" stroke-width="2.29167" stroke-miterlimit="8" fill="none" fill-rule="evenodd" transform="matrix(-1 0 0 1 1255.87 1023)"/><path d="M0 0 173.867 556.918" stroke="#000000" stroke-width="2.29167" stroke-miterlimit="8" fill="none" fill-rule="evenodd" transform="matrix(-1 0 0 1 1255.87 1023)"/><path d="M0 0 173.866 342.774" stroke="#000000" stroke-width="2.29167" stroke-miterlimit="8" fill="none" fill-rule="evenodd" transform="matrix(-1 0 0 1 1255.87 1238)"/><path d="M0 0 173.866 123.484" stroke="#000000" stroke-width="2.29167" stroke-miterlimit="8" fill="none" fill-rule="evenodd" transform="matrix(-1 0 0 1 1255.87 1238)"/><path d="M1255.87 1237.66 1082 1147" stroke="#000000" stroke-width="2.29167" stroke-miterlimit="8" fill="none" fill-rule="evenodd"/><path d="M1255.87 1237.95 1082 928" stroke="#000000" stroke-width="2.29167" stroke-miterlimit="8" fill="none" fill-rule="evenodd"/><path d="M1255.87 1237.24 1082 708" stroke="#000000" stroke-width="2.29167" stroke-miterlimit="8" fill="none" fill-rule="evenodd"/><path d="M1560.5 1235.5C1560.5 1201.26 1589.38 1173.5 1625 1173.5 1660.62 1173.5 1689.5 1201.26 1689.5 1235.5 1689.5 1269.74 1660.62 1297.5 1625 1297.5 1589.38 1297.5 1560.5 1269.74 1560.5 1235.5Z" stroke="#000000" stroke-width="4.58333" stroke-miterlimit="8" fill="#FCB2F3" fill-rule="evenodd"/><path d="M1560.5 1449.5C1560.5 1415.26 1589.38 1387.5 1625 1387.5 1660.62 1387.5 1689.5 1415.26 1689.5 1449.5 1689.5 1483.74 1660.62 1511.5 1625 1511.5 1589.38 1511.5 1560.5 1483.74 1560.5 1449.5Z" stroke="#000000" stroke-width="4.58333" stroke-miterlimit="8" fill="#FCB2F3" fill-rule="evenodd"/><path d="M1560.5 815C1560.5 781.034 1589.38 753.5 1625 753.5 1660.62 753.5 1689.5 781.034 1689.5 815 1689.5 848.966 1660.62 876.5 1625 876.5 1589.38 876.5 1560.5 848.966 1560.5 815Z" stroke="#000000" stroke-width="4.58333" stroke-miterlimit="8" fill="#FCB2F3" fill-rule="evenodd"/><path d="M1560.5 1029C1560.5 995.035 1589.38 967.5 1625 967.5 1660.62 967.5 1689.5 995.035 1689.5 1029 1689.5 1062.97 1660.62 1090.5 1625 1090.5 1589.38 1090.5 1560.5 1062.97 1560.5 1029Z" stroke="#000000" stroke-width="4.58333" stroke-miterlimit="8" fill="#FCB2F3" fill-rule="evenodd"/><path d="M0 0 173.87 208.834" stroke="#000000" stroke-width="2.29167" stroke-miterlimit="8" fill="none" fill-rule="evenodd" transform="matrix(-1 0 0 1 1559.87 815)"/><path d="M0 0 173.871 422.978" stroke="#000000" stroke-width="2.29167" stroke-miterlimit="8" fill="none" fill-rule="evenodd" transform="matrix(-1 0 0 1 1559.87 815)"/><path d="M1559.87 1028.31 1386 1023" stroke="#000000" stroke-width="2.29167" stroke-miterlimit="8" fill="none" fill-rule="evenodd"/><path d="M0 0 173.87 208.834" stroke="#000000" stroke-width="2.29167" stroke-miterlimit="8" fill="none" fill-rule="evenodd" transform="matrix(-1 0 0 1 1559.87 1029)"/><path d="M0 0 173.872 2.48222" stroke="#000000" stroke-width="2.29167" stroke-miterlimit="8" fill="none" fill-rule="evenodd" transform="matrix(-1 0 0 1 1559.87 1235)"/><path d="M1559.87 1234.66 1386 1023" stroke="#000000" stroke-width="2.29167" stroke-miterlimit="8" fill="none" fill-rule="evenodd"/><path d="M1559.87 1448.81 1386 1023" stroke="#000000" stroke-width="2.29167" stroke-miterlimit="8" fill="none" fill-rule="evenodd"/><path d="M1559.87 1449.66 1386 1238" stroke="#000000" stroke-width="2.29167" stroke-miterlimit="8" fill="none" fill-rule="evenodd"/><rect x="576" y="514" width="279" height="89" fill="#FFE699"/><text font-family="Calibri,Calibri_MSFontService,sans-serif" font-weight="400" font-size="46" transform="matrix(1 0 0 1 608.624 573)">Input Layer</text><rect x="1006" y="514" width="315" height="89" fill="#A9D18E"/><text font-family="Calibri,Calibri_MSFontService,sans-serif" font-weight="400" font-size="46" transform="matrix(1 0 0 1 1039.45 573)">Hidden Layer</text><rect x="1473" y="514" width="313" height="89" fill="#FCB2F3"/><text font-family="Calibri,Calibri_MSFontService,sans-serif" font-weight="400" font-size="46" transform="matrix(1 0 0 1 1505.57 573)">Output Layer</text></g></svg>