<svg width="1064" height="931" xmlns="http://www.w3.org/2000/svg" xmlns:xlink="http://www.w3.org/1999/xlink" xml:space="preserve" overflow="hidden"><defs><clipPath id="clip0"><rect x="1363" y="680" width="1064" height="931"/></clipPath></defs><g clip-path="url(#clip0)" transform="translate(-1363 -680)"><rect x="1715.5" y="682.5" width="485" height="172" stroke="#000000" stroke-width="4.58333" stroke-miterlimit="8" fill="#A9D18E"/><text font-family="Calibri,Calibri_MSFontService,sans-serif" font-weight="400" font-size="55" transform="matrix(1 0 0 1 1891.03 786)">Agent</text><rect x="1715.5" y="1424.5" width="485" height="184" stroke="#000000" stroke-width="4.58333" stroke-miterlimit="8" fill="#A9D18E"/><text font-family="Calibri,Calibri_MSFontService,sans-serif" font-weight="400" font-size="55" transform="matrix(1 0 0 1 1833.96 1533)">Umgebung</text><path d="M2200.1 766.858 2206.12 767.365 2212.15 768.777 2218.17 771.083 2224.1 774.334 2230 778.332 2235.83 783.147 2241.58 788.773 2247.19 795.142 2252.73 802.192 2258.14 809.925 2263.48 818.281 2268.63 827.262 2273.65 836.861 2278.54 847.021 2283.24 857.74 2287.82 868.896 2292.14 880.55 2296.34 892.64 2300.28 905.17 2303.98 918.077 2310.74 944.933 2316.44 972.92 2321.07 1001.91 2324.45 1031.58 2326.58 1061.76 2326.75 1069.22 2324.46 1069.28 2324.29 1061.84 2324.29 1061.89 2322.17 1031.77 2322.17 1031.82 2318.8 1002.19 2318.81 1002.24 2314.18 973.306 2314.19 973.354 2308.5 945.416 2308.51 945.467 2301.76 918.655 2301.77 918.69 2298.09 905.815 2298.09 905.844 2294.16 893.344 2294.17 893.376 2289.98 881.313 2289.99 881.336 2285.68 869.711 2285.69 869.747 2281.13 858.622 2281.14 858.648 2276.45 847.96 2276.47 847.997 2271.59 837.872 2271.61 837.906 2266.61 828.343 2266.63 828.382 2261.51 819.445 2261.53 819.492 2256.22 811.18 2256.25 811.219 2250.87 803.531 2250.91 803.583 2245.41 796.583 2245.45 796.633 2239.89 790.32 2239.95 790.382 2234.26 784.819 2234.33 784.883 2228.58 780.133 2228.67 780.199 2222.86 776.261 2222.95 776.317 2217.14 773.13 2217.28 773.195 2211.4 770.945 2211.55 770.991 2205.68 769.616 2205.84 769.642 2199.9 769.142ZM2339.25 1064.36 2326.13 1092.16 2311.76 1064.98Z"/><text font-family="Calibri,Calibri_MSFontService,sans-serif" font-weight="400" font-size="50" transform="matrix(1 0 0 1 2258.7 1155)">Aktion</text><text fill="#00B050" font-family="Calibri,Calibri_MSFontService,sans-serif" font-weight="400" font-size="50" transform="matrix(1 0 0 1 1395.65 1231)">Belohnung</text><text font-family="Calibri,Calibri_MSFontService,sans-serif" font-weight="400" font-size="50" transform="matrix(1 0 0 1 1626.54 1231)">oder </text><text fill="#FF0000" font-family="Calibri,Calibri_MSFontService,sans-serif" font-weight="400" font-size="50" transform="matrix(1 0 0 1 1395.65 1292)">Bestrafung </text><text font-family="Calibri,Calibri_MSFontService,sans-serif" font-weight="400" font-size="50" transform="matrix(1 0 0 1 1629.4 1292)">erhalten</text><text font-family="Calibri,Calibri_MSFontService,sans-serif" font-weight="400" font-size="50" transform="matrix(1 0 0 1 1406.07 1008)">Strategie anpassen</text><path d="M2327.27 1186.03 2326.52 1216.93 2324.46 1247.54 2321.01 1277.72 2316.44 1307.2 2310.68 1335.69 2303.92 1362.92 2300.23 1376.07 2296.28 1388.79 2292.15 1401.07 2287.76 1412.91 2283.25 1424.25 2278.55 1435.16 2273.65 1445.45 2268.63 1455.17 2263.42 1464.34 2258.15 1472.82 2252.74 1480.68 2247.2 1487.85 2241.52 1494.29 2235.78 1499.97 2229.95 1504.96 2222.15 1508.88 2221.12 1506.84 2228.8 1502.98 2228.57 1503.13 2234.26 1498.25 2234.2 1498.31 2239.88 1492.69 2239.83 1492.74 2245.46 1486.37 2245.41 1486.42 2250.91 1479.3 2250.87 1479.35 2256.25 1471.54 2256.22 1471.58 2261.47 1463.14 2261.44 1463.18 2266.63 1454.06 2266.61 1454.1 2271.61 1444.41 2271.59 1444.45 2276.47 1434.2 2276.45 1434.23 2281.14 1423.36 2281.12 1423.39 2285.62 1412.08 2285.62 1412.1 2289.99 1400.29 2289.98 1400.32 2294.1 1388.07 2294.1 1388.1 2298.03 1375.41 2298.02 1375.44 2301.71 1362.31 2301.7 1362.35 2308.45 1335.16 2308.44 1335.21 2314.19 1306.77 2314.18 1306.82 2318.74 1277.39 2318.74 1277.43 2322.18 1247.31 2322.17 1247.36 2324.23 1216.8 2324.23 1216.85 2324.98 1185.97ZM2230.5 1519.33 2200 1515.43 2221.42 1493.37Z"/><path d="M1599.85 944.22 1600.48 927.674 1602.43 911.214 1605.51 895.009 1609.71 879.183 1614.86 863.86 1620.96 849.222 1627.93 835.401 1635.6 822.392 1643.97 810.502 1652.96 799.74 1662.41 790.236 1667.34 785.997 1672.39 782.144 1677.45 778.733 1682.69 775.6 1692.07 772.14 1692.87 774.29 1683.58 777.713 1683.78 777.622 1678.65 780.684 1678.7 780.65 1673.7 784.025 1673.76 783.987 1668.76 787.799 1668.81 787.757 1663.93 791.945 1664 791.883 1654.63 801.321 1654.69 801.248 1645.75 811.936 1645.81 811.86 1637.5 823.673 1637.55 823.595 1629.92 836.532 1629.96 836.467 1623.02 850.217 1623.06 850.141 1617 864.704 1617.02 864.628 1611.9 879.878 1611.92 879.808 1607.73 895.558 1607.75 895.477 1604.69 911.602 1604.7 911.523 1602.76 927.898 1602.77 927.807 1602.15 944.307ZM1684.88 760.869 1714.78 768 1691.13 787.647Z"/><path d="M1714.73 1516.48 1709.35 1516.23 1703.86 1515.34 1698.52 1514 1693.1 1512.09 1687.83 1509.68 1682.57 1506.82 1677.38 1503.47 1672.26 1499.68 1667.27 1495.51 1662.35 1490.9 1657.57 1485.93 1652.83 1480.56 1643.91 1468.81 1635.55 1455.8 1627.82 1441.66 1620.91 1426.53 1614.82 1410.59 1609.68 1393.89 1605.47 1376.7 1602.4 1358.99 1601.24 1345.98 1603.52 1345.77 1604.68 1358.74 1604.66 1358.64 1607.73 1376.27 1607.71 1376.19 1611.9 1393.32 1611.88 1393.25 1617 1409.88 1616.98 1409.8 1623.04 1425.68 1623.01 1425.61 1629.89 1440.67 1629.85 1440.6 1637.54 1454.66 1637.5 1454.59 1645.81 1467.53 1645.76 1467.46 1654.63 1479.14 1654.58 1479.08 1659.27 1484.39 1659.23 1484.36 1663.98 1489.29 1663.94 1489.25 1668.82 1493.81 1668.77 1493.77 1673.71 1497.9 1673.65 1497.85 1678.72 1501.6 1678.66 1501.56 1683.78 1504.88 1683.7 1504.83 1688.89 1507.64 1688.82 1507.61 1694.01 1509.98 1693.92 1509.94 1699.23 1511.82 1699.12 1511.79 1704.37 1513.1 1704.28 1513.08 1709.66 1513.96 1709.53 1513.94 1714.84 1514.19ZM1588.93 1351.28 1601 1323 1616.38 1349.62Z"/><path d="M1.14583-3.19363e-06 1.14613 106.567-1.14554 106.567-1.14583 3.19363e-06ZM13.7503 101.983 0.000360892 129.483-13.7497 101.984Z" transform="matrix(1 0 0 -1 1601 1168.48)"/></g></svg>