<svg width="1288" height="941" xmlns="http://www.w3.org/2000/svg" xmlns:xlink="http://www.w3.org/1999/xlink" xml:space="preserve" overflow="hidden"><defs><clipPath id="clip0"><rect x="1238" y="680" width="1288" height="941"/></clipPath></defs><g clip-path="url(#clip0)" transform="translate(-1238 -680)"><rect x="1715.5" y="682.5" width="485" height="172" stroke="#000000" stroke-width="4.58333" stroke-miterlimit="8" fill="#A9D18E"/><text font-family="Calibri,Calibri_MSFontService,sans-serif" font-weight="400" font-size="83" transform="matrix(1 0 0 1 1857.6 789)">Agent</text><rect x="1715.5" y="1430.5" width="485" height="184" stroke="#000000" stroke-width="4.58333" stroke-miterlimit="8" fill="#A9D18E"/><text font-family="Calibri,Calibri_MSFontService,sans-serif" font-weight="400" font-size="83" transform="matrix(1 0 0 1 1771.6 1549)">Umgebung</text><path d="M2200.05 766.855 2210.66 767.358 2221.38 768.745 2231.98 771.015 2242.49 774.227 2253.01 778.193 2263.33 782.976 2273.58 788.574 2283.64 794.923 2293.5 801.959 2303.24 809.683 2312.71 818.033 2322 827.009 2330.98 836.609 2339.76 846.772 2348.16 857.496 2356.31 868.656 2364.09 880.319 2371.55 892.417 2378.63 904.954 2385.34 917.866 2391.61 931.157 2397.37 944.757 2402.76 958.668 2407.65 972.77 2412.04 987.186 2415.93 1001.79 2419.25 1016.58 2422.07 1031.5 2424.26 1046.61 2425.83 1061.72 2426.21 1069.21 2423.92 1069.32 2423.54 1061.87 2423.55 1061.93 2421.99 1046.87 2421.99 1046.91 2419.8 1031.85 2419.81 1031.9 2417 1017.03 2417.01 1017.06 2413.69 1002.31 2413.71 1002.36 2409.83 987.795 2409.84 987.834 2405.47 973.459 2405.48 973.5 2400.6 959.438 2400.62 959.476 2395.24 945.601 2395.26 945.635 2389.51 932.072 2389.53 932.114 2383.28 918.864 2383.3 918.903 2376.61 906.028 2376.63 906.064 2369.56 893.564 2369.59 893.601 2362.15 881.539 2362.17 881.573 2354.42 869.948 2354.45 869.988 2346.32 858.863 2346.35 858.894 2337.97 848.207 2338.01 848.249 2329.26 838.124 2329.29 838.157 2320.35 828.595 2320.39 828.636 2311.14 819.699 2311.18 819.735 2301.74 811.422 2301.79 811.46 2292.1 803.773 2292.15 803.808 2282.33 796.808 2282.39 796.844 2272.39 790.531 2272.45 790.568 2262.26 785.006 2262.33 785.04 2252.08 780.29 2252.16 780.322 2241.72 776.385 2241.79 776.408 2231.35 773.221 2231.45 773.245 2220.95 770.995 2221.04 771.011 2210.42 769.636 2210.51 769.644 2199.95 769.144ZM2438.62 1064.12 2426 1092.16 2411.14 1065.24Z"/><text font-family="Calibri,Calibri_MSFontService,sans-serif" font-weight="400" font-size="50" transform="matrix(1 0 0 1 2358.57 1155)">Aktion</text><text fill="#00B050" font-family="Calibri,Calibri_MSFontService,sans-serif" font-weight="400" font-size="50" transform="matrix(1 0 0 1 1270.74 1234)">Belohnung</text><text font-family="Calibri,Calibri_MSFontService,sans-serif" font-weight="400" font-size="50" transform="matrix(1 0 0 1 1501.63 1234)">oder </text><text fill="#FF0000" font-family="Calibri,Calibri_MSFontService,sans-serif" font-weight="400" font-size="50" transform="matrix(1 0 0 1 1270.74 1295)">Bestrafung </text><text font-family="Calibri,Calibri_MSFontService,sans-serif" font-weight="400" font-size="50" transform="matrix(1 0 0 1 1504.49 1295)">erhalten</text><text font-family="Calibri,Calibri_MSFontService,sans-serif" font-weight="400" font-size="50" transform="matrix(1 0 0 1 1281.16 1018)">Strategie anpassen</text><path d="M2427.14 1186.02 2426.83 1201.8 2425.83 1217.53 2424.26 1233.2 2422.06 1248.81 2419.24 1264.22 2415.92 1279.58 2412.04 1294.68 2407.65 1309.59 2402.76 1324.26 2397.38 1338.61 2391.61 1352.7 2385.34 1366.43 2378.64 1379.78 2371.55 1392.75 2364.09 1405.29 2356.32 1417.33 2348.17 1428.93 2339.77 1439.96 2330.99 1450.5 2322.01 1460.41 2312.73 1469.7 2303.25 1478.36 2293.51 1486.4 2283.65 1493.69 2273.59 1500.23 2263.34 1505.95 2253.02 1510.93 2242.5 1515.08 2231.95 1518.37 2222.95 1519.91 2222.56 1517.65 2231.49 1516.12 2231.34 1516.16 2241.78 1512.91 2241.7 1512.93 2252.14 1508.81 2252.06 1508.84 2262.31 1503.9 2262.25 1503.94 2272.44 1498.25 2272.37 1498.29 2282.37 1491.79 2282.32 1491.83 2292.13 1484.58 2292.08 1484.62 2301.77 1476.62 2301.72 1476.65 2311.16 1468.03 2311.12 1468.06 2320.37 1458.81 2320.33 1458.86 2329.27 1448.98 2329.24 1449.02 2337.99 1438.52 2337.96 1438.56 2346.33 1427.56 2346.31 1427.59 2354.43 1416.03 2354.41 1416.07 2362.16 1404.07 2362.14 1404.1 2369.57 1391.6 2369.55 1391.64 2376.62 1378.7 2376.6 1378.74 2383.28 1365.42 2383.27 1365.46 2389.52 1351.77 2389.5 1351.82 2395.25 1337.75 2395.24 1337.78 2400.61 1323.47 2400.6 1323.51 2405.47 1308.89 2405.46 1308.93 2409.83 1294.05 2409.82 1294.09 2413.7 1279.03 2413.69 1279.07 2417 1263.76 2416.99 1263.79 2419.81 1248.42 2419.8 1248.47 2421.99 1232.9 2421.98 1232.95 2423.54 1217.32 2423.54 1217.36 2424.54 1201.68 2424.54 1201.73 2424.85 1185.98ZM2228.94 1531.89 2200 1521.5 2225.67 1504.59Z"/><path d="M1474.86 954.499 1475.23 945.708 1476.24 936.873 1477.95 928.102 1480.28 919.401 1483.24 910.768 1486.77 902.204 1490.86 893.767 1495.52 885.459 1500.74 877.285 1506.39 869.239 1512.55 861.38 1519.22 853.713 1526.31 846.302 1533.78 839.082 1541.63 832.111 1549.93 825.387 1567.43 812.779 1586.18 801.426 1595.98 796.211 1606.03 791.442 1616.25 786.987 1626.67 782.971 1637.34 779.331 1648.07 776.13 1658.99 773.369 1669.98 771.046 1681.1 769.223 1691.71 768.237 1691.92 770.518 1681.36 771.501 1681.44 771.491 1670.37 773.303 1670.42 773.294 1659.49 775.606 1659.53 775.596 1648.66 778.346 1648.7 778.333 1638.02 781.521 1638.06 781.507 1627.43 785.132 1627.47 785.117 1617.1 789.117 1617.15 789.098 1606.96 793.536 1606.99 793.52 1596.99 798.27 1597.04 798.247 1587.29 803.434 1587.34 803.403 1568.66 814.715 1568.73 814.665 1551.29 827.227 1551.35 827.188 1543.1 833.875 1543.14 833.842 1535.32 840.78 1535.36 840.747 1527.92 847.934 1527.95 847.903 1520.89 855.278 1520.93 855.237 1514.3 862.862 1514.34 862.817 1508.21 870.63 1508.25 870.582 1502.62 878.582 1502.65 878.539 1497.47 886.664 1497.5 886.608 1492.87 894.858 1492.91 894.798 1488.84 903.173 1488.87 903.109 1485.37 911.609 1485.4 911.545 1482.46 920.107 1482.48 920.032 1480.17 928.657 1480.19 928.579 1478.5 937.266 1478.51 937.178 1477.51 945.928 1477.52 945.847 1477.14 954.597ZM1686.42 755.928 1714.69 768 1688.07 783.378Z"/><path d="M1714.66 1523.42 1703.45 1523.1 1692.21 1522.29 1681.02 1520.91 1669.91 1518.96 1658.93 1516.57 1648 1513.69 1637.27 1510.3 1626.6 1506.47 1616.18 1502.2 1605.95 1497.56 1595.91 1492.47 1586.11 1487.01 1567.35 1475.09 1549.85 1461.79 1541.56 1454.75 1533.71 1447.41 1526.24 1439.81 1519.14 1431.96 1512.54 1423.92 1506.32 1415.62 1500.67 1407.2 1495.45 1398.59 1490.79 1389.84 1486.7 1380.97 1483.18 1371.97 1480.22 1362.9 1477.88 1353.67 1477.35 1348.91 1479.63 1348.65 1480.15 1353.33 1480.12 1353.18 1482.43 1362.3 1482.41 1362.23 1485.35 1371.23 1485.32 1371.17 1488.82 1380.1 1488.8 1380.04 1492.86 1388.86 1492.83 1388.8 1497.46 1397.48 1497.42 1397.43 1502.61 1405.99 1502.58 1405.95 1508.21 1414.32 1508.17 1414.27 1514.36 1422.52 1514.33 1422.48 1520.89 1430.48 1520.86 1430.44 1527.92 1438.25 1527.89 1438.22 1535.32 1445.78 1535.29 1445.75 1543.1 1453.06 1543.06 1453.02 1551.31 1460.02 1551.26 1459.99 1568.7 1473.24 1568.62 1473.18 1587.31 1485.06 1587.25 1485.02 1597 1490.46 1596.96 1490.44 1606.96 1495.5 1606.92 1495.48 1617.11 1500.1 1617.07 1500.09 1627.44 1504.34 1627.39 1504.32 1638.02 1508.13 1637.98 1508.12 1648.66 1511.49 1648.61 1511.48 1659.49 1514.35 1659.44 1514.34 1670.37 1516.72 1670.33 1516.71 1681.39 1518.64 1681.33 1518.64 1692.46 1520.01 1692.4 1520 1703.59 1520.82 1703.54 1520.81 1714.73 1521.13ZM1465.31 1354.83 1476 1326 1492.65 1351.85Z"/><path d="M1.14583-3.40793e-06 1.14613 98.4247-1.14554 98.4247-1.14583 3.40793e-06ZM13.7503 93.8414 0.000360892 121.341-13.7497 93.8414Z" transform="matrix(1 0 0 -1 1476 1170.34)"/></g></svg>