<svg width="1448" height="941" xmlns="http://www.w3.org/2000/svg" xmlns:xlink="http://www.w3.org/1999/xlink" xml:space="preserve" overflow="hidden"><defs><clipPath id="clip0"><rect x="1147" y="680" width="1448" height="941"/></clipPath></defs><g clip-path="url(#clip0)" transform="translate(-1147 -680)"><rect x="1715.5" y="682.5" width="485" height="172" stroke="#000000" stroke-width="4.58333" stroke-miterlimit="8" fill="#FFE699"/><text font-family="Calibri,Calibri_MSFontService,sans-serif" font-weight="400" font-size="83" transform="matrix(1 0 0 1 1857.6 789)">Agent</text><rect x="1715.5" y="1430.5" width="485" height="184" stroke="#000000" stroke-width="4.58333" stroke-miterlimit="8" fill="#FFE699"/><text font-family="Calibri,Calibri_MSFontService,sans-serif" font-weight="400" font-size="83" transform="matrix(1 0 0 1 1771.6 1549)">Umgebung</text><path d="M2200.04 766.855 2213.58 767.356 2227.09 768.739 2240.6 771.001 2253.98 774.205 2267.3 778.161 2280.42 782.934 2293.42 788.522 2306.22 794.86 2318.83 801.888 2331.19 809.605 2343.24 817.948 2355.03 826.916 2366.5 836.511 2377.67 846.671 2388.39 857.391 2398.79 868.55 2408.7 880.213 2418.17 892.312 2427.19 904.849 2435.72 917.765 2443.68 931.057 2451.08 944.659 2457.98 958.577 2464.18 972.687 2469.76 987.109 2474.72 1001.72 2478.98 1016.52 2482.5 1031.45 2485.32 1046.57 2487.33 1061.7 2487.81 1069.2 2485.52 1069.35 2485.04 1061.89 2485.05 1061.96 2483.05 1046.9 2483.06 1046.96 2480.25 1031.9 2480.26 1031.95 2476.76 1017.07 2476.77 1017.13 2472.52 1002.38 2472.54 1002.43 2467.6 987.868 2467.62 987.913 2462.06 973.538 2462.08 973.586 2455.89 959.524 2455.91 959.571 2449.04 945.696 2449.06 945.735 2441.68 932.172 2441.7 932.214 2433.77 918.964 2433.79 919.006 2425.29 906.131 2425.32 906.169 2416.32 893.669 2416.35 893.706 2406.91 881.643 2406.94 881.679 2397.06 870.054 2397.1 870.094 2386.72 858.969 2386.75 858.998 2376.06 848.31 2376.1 848.347 2364.98 838.222 2365.02 838.254 2353.58 828.692 2353.62 828.724 2341.87 819.787 2341.91 819.817 2329.91 811.504 2329.96 811.534 2317.64 803.847 2317.69 803.876 2305.13 796.876 2305.18 796.902 2292.43 790.589 2292.48 790.615 2279.55 785.053 2279.61 785.077 2266.55 780.327 2266.61 780.348 2253.36 776.411 2253.42 776.427 2240.11 773.239 2240.19 773.255 2226.75 771.005 2226.82 771.015 2213.38 769.64 2213.46 769.645 2199.96 769.145ZM2500.16 1063.98 2487.86 1092.16 2472.69 1065.42Z"/><text font-family="Calibri,Calibri_MSFontService,sans-serif" font-weight="400" font-size="55" transform="matrix(1 0 0 1 2413.92 1159)">Aktion</text><text fill="#548235" font-family="Calibri,Calibri_MSFontService,sans-serif" font-weight="400" font-size="55" transform="matrix(1 0 0 1 1180.93 1238)">Belohnung</text><text font-family="Calibri,Calibri_MSFontService,sans-serif" font-weight="400" font-size="55" transform="matrix(1 0 0 1 1433.01 1238)">oder </text><text fill="#FF0000" font-family="Calibri,Calibri_MSFontService,sans-serif" font-weight="400" font-size="55" transform="matrix(1 0 0 1 1180.93 1304)">Bestrafung </text><text font-family="Calibri,Calibri_MSFontService,sans-serif" font-weight="400" font-size="55" transform="matrix(1 0 0 1 1433.81 1304)">erhalten</text><text font-family="Calibri,Calibri_MSFontService,sans-serif" font-weight="400" font-size="55" transform="matrix(1 0 0 1 1191.12 1013)">Strategie anpassen</text><path d="M2489.01 1192.03 2488.57 1207.5 2487.38 1223 2485.31 1238.43 2482.55 1253.8 2478.97 1268.97 2474.71 1284.08 2469.82 1298.95 2464.18 1313.62 2457.97 1328.04 2451.14 1342.15 2443.68 1356 2435.71 1369.54 2427.19 1382.64 2418.16 1395.43 2408.7 1407.78 2398.79 1419.63 2388.38 1431.04 2377.66 1441.89 2366.5 1452.23 2355.09 1461.95 2343.3 1471.11 2331.19 1479.64 2318.83 1487.48 2306.22 1494.64 2293.41 1501.1 2280.42 1506.75 2267.29 1511.65 2253.98 1515.67 2240.58 1518.94 2223.03 1521.5 2222.7 1519.23 2240.2 1516.68 2240.09 1516.7 2253.41 1513.45 2253.35 1513.47 2266.6 1509.47 2266.53 1509.49 2279.59 1504.61 2279.53 1504.64 2292.47 1499.01 2292.41 1499.04 2305.16 1492.6 2305.11 1492.63 2317.67 1485.5 2317.63 1485.53 2329.94 1477.72 2329.89 1477.75 2341.96 1469.25 2341.91 1469.28 2353.66 1460.16 2353.62 1460.19 2365 1450.5 2364.96 1450.53 2376.09 1440.22 2376.05 1440.26 2386.74 1429.44 2386.71 1429.48 2397.08 1418.1 2397.05 1418.14 2406.92 1406.33 2406.89 1406.37 2416.33 1394.05 2416.3 1394.09 2425.3 1381.34 2425.28 1381.38 2433.78 1368.31 2433.75 1368.36 2441.69 1354.86 2441.67 1354.89 2449.11 1341.08 2449.08 1341.13 2455.9 1327.06 2455.88 1327.11 2462.06 1312.73 2462.05 1312.78 2467.67 1298.15 2467.65 1298.2 2472.53 1283.39 2472.51 1283.44 2476.76 1268.38 2476.75 1268.42 2480.31 1253.3 2480.3 1253.36 2483.05 1238.05 2483.04 1238.1 2485.1 1222.72 2485.1 1222.79 2486.28 1207.35 2486.28 1207.41 2486.72 1191.97ZM2228.39 1533.77 2200 1521.95 2226.48 1506.33Z"/><path d="M1402.86 945.506 1403.3 937.129 1404.69 928.7 1406.91 920.348 1409.94 912.002 1413.79 903.729 1418.4 895.588 1423.82 887.524 1429.86 879.59 1436.66 871.852 1444.07 864.185 1452.12 856.707 1460.78 849.424 1469.95 842.33 1479.73 835.491 1489.96 828.842 1500.74 822.445 1511.97 816.301 1523.56 810.471 1535.6 804.892 1548.02 799.687 1573.82 790.169 1587.17 785.968 1600.77 782.084 1614.55 778.637 1628.59 775.63 1642.81 772.998 1657.16 770.805 1671.57 769.113 1686.12 767.859 1692.39 767.614 1692.48 769.904 1686.23 770.148 1686.29 770.145 1671.79 771.395 1671.82 771.391 1657.45 773.079 1657.49 773.074 1643.17 775.261 1643.21 775.255 1629.02 777.88 1629.05 777.874 1615.05 780.874 1615.09 780.865 1601.34 784.302 1601.38 784.293 1587.81 788.168 1587.84 788.159 1574.53 792.346 1574.58 792.328 1548.83 801.828 1548.88 801.81 1536.51 806.998 1536.54 806.98 1524.54 812.543 1524.58 812.527 1513.01 818.34 1513.05 818.321 1501.86 824.446 1501.9 824.426 1491.15 830.801 1491.19 830.776 1481 837.401 1481.03 837.38 1471.28 844.193 1471.33 844.159 1462.2 851.222 1462.24 851.193 1453.61 858.443 1453.66 858.405 1445.66 865.843 1445.7 865.8 1438.32 873.425 1438.36 873.384 1431.61 881.072 1431.66 881.01 1425.66 888.885 1425.7 888.83 1420.33 896.83 1420.37 896.755 1415.81 904.818 1415.85 904.737 1412.04 912.925 1412.08 912.832 1409.08 921.082 1409.11 920.985 1406.92 929.235 1406.94 929.128 1405.57 937.44 1405.58 937.314 1405.14 945.626ZM1687.4 755.168 1715.34 768 1688.31 782.653Z"/><path d="M1715.32 1523.31 1700.74 1523.06 1686.13 1522.25 1671.53 1520.93 1657.12 1519.11 1642.77 1516.86 1628.54 1514.1 1614.51 1510.97 1600.72 1507.33 1587.12 1503.32 1573.77 1498.93 1547.97 1489.04 1535.55 1483.58 1523.51 1477.75 1511.91 1471.67 1500.69 1465.28 1489.97 1458.63 1479.68 1451.67 1469.89 1444.51 1460.73 1437.1 1452.06 1429.51 1444.02 1421.78 1436.6 1413.8 1429.81 1405.69 1423.77 1397.44 1418.35 1389.06 1413.75 1380.55 1409.88 1371.93 1406.54 1359.93 1408.75 1359.32 1412.07 1371.23 1412.01 1371.07 1415.82 1379.57 1415.79 1379.5 1420.35 1387.93 1420.3 1387.86 1425.68 1396.17 1425.64 1396.11 1431.64 1404.3 1431.59 1404.24 1438.34 1412.3 1438.3 1412.26 1445.68 1420.2 1445.63 1420.15 1453.63 1427.84 1453.59 1427.8 1462.22 1435.37 1462.18 1435.34 1471.31 1442.71 1471.27 1442.68 1481.02 1449.8 1480.98 1449.78 1491.23 1456.72 1491.19 1456.69 1501.88 1463.32 1501.84 1463.29 1513.03 1469.67 1513 1469.65 1524.56 1475.71 1524.53 1475.7 1536.53 1481.51 1536.49 1481.49 1548.86 1486.93 1548.81 1486.91 1574.56 1496.78 1574.51 1496.76 1587.82 1501.14 1587.79 1501.13 1601.35 1505.13 1601.32 1505.12 1615.07 1508.74 1615.03 1508.73 1629.03 1511.86 1629 1511.85 1643.18 1514.6 1643.14 1514.6 1657.46 1516.85 1657.42 1516.84 1671.8 1518.65 1671.76 1518.65 1686.32 1519.96 1686.28 1519.96 1700.84 1520.77 1700.8 1520.77 1715.36 1521.02ZM1394.8 1366.34 1404 1337 1421.95 1361.96Z"/><path d="M1402.85 1169.77 1402.85 1067.92 1405.15 1067.92 1405.15 1169.77ZM1390.25 1072.5 1404 1045 1417.75 1072.5Z"/></g></svg>