<svg width="1404" height="1497" xmlns="http://www.w3.org/2000/svg" xmlns:xlink="http://www.w3.org/1999/xlink" xml:space="preserve" overflow="hidden"><defs><clipPath id="clip0"><rect x="406" y="1113" width="1404" height="1497"/></clipPath><clipPath id="clip1"><rect x="406" y="1113" width="1402" height="1494"/></clipPath><clipPath id="clip2"><rect x="551" y="1248" width="1223" height="955"/></clipPath><clipPath id="clip3"><rect x="406" y="1113" width="1402" height="1494"/></clipPath><clipPath id="clip4"><rect x="406" y="1113" width="1402" height="1494"/></clipPath><clipPath id="clip5"><rect x="406" y="1113" width="1402" height="1494"/></clipPath><clipPath id="clip6"><rect x="406" y="1113" width="1402" height="1494"/></clipPath><clipPath id="clip7"><rect x="406" y="1113" width="1402" height="1494"/></clipPath><clipPath id="clip8"><rect x="406" y="1113" width="1402" height="1494"/></clipPath><clipPath id="clip9"><rect x="406" y="1113" width="1402" height="1494"/></clipPath><clipPath id="clip10"><rect x="406" y="1113" width="1402" height="1494"/></clipPath><clipPath id="clip11"><rect x="406" y="1113" width="1402" height="1494"/></clipPath><clipPath id="clip12"><rect x="406" y="1113" width="1402" height="1494"/></clipPath><clipPath id="clip13"><rect x="406" y="1113" width="1402" height="1494"/></clipPath><clipPath id="clip14"><rect x="406" y="1113" width="1402" height="1494"/></clipPath><clipPath id="clip15"><rect x="406" y="1113" width="1402" height="1494"/></clipPath><clipPath id="clip16"><rect x="406" y="1113" width="1402" height="1494"/></clipPath><clipPath id="clip17"><rect x="406" y="1113" width="1402" height="1494"/></clipPath><clipPath id="clip18"><rect x="406" y="1113" width="1402" height="1494"/></clipPath><clipPath id="clip19"><rect x="406" y="1113" width="1402" height="1494"/></clipPath></defs><g clip-path="url(#clip0)" transform="translate(-406 -1113)"><rect x="407" y="1114" width="1401" height="1494" fill="#FFFFFF"/><g clip-path="url(#clip1)"><path d="M551.5 2041.57 1771.5 2041.57M551.5 1882.56 1771.5 1882.56M551.5 1723.56 1771.5 1723.56M551.5 1565.55 1771.5 1565.55M551.5 1406.55 1771.5 1406.55M551.5 1248.5 1771.5 1248.5" stroke="#D9D9D9" stroke-width="3.4375" stroke-linejoin="round" stroke-miterlimit="10" fill="none"/></g><g clip-path="url(#clip2)"><path d="M604.02 1724.06 651.021 1724.06 651.021 2200 604.02 2200ZM756.025 1708.06 804.026 1708.06 804.026 2200 756.025 2200ZM909.03 1692.06 956.031 1692.06 956.031 2200 909.03 2200ZM1061.03 1692.06 1109.04 1692.06 1109.04 2200 1061.03 2200ZM1214.04 1629.05 1261.04 1629.05 1261.04 2200 1214.04 2200ZM1366.04 1629.05 1414.05 1629.05 1414.05 2200 1366.04 2200ZM1519.05 1597.05 1567.05 1597.05 1567.05 2200 1519.05 2200ZM1671.05 1343.04 1719.06 1343.04 1719.06 2200 1671.05 2200Z" fill="#70AD47"/></g><g clip-path="url(#clip3)"><path d="M551.5 2199.5 1771.5 2199.5" stroke="#D9D9D9" stroke-width="3.4375" stroke-linejoin="round" stroke-miterlimit="10" fill="none" fill-rule="evenodd"/></g><g clip-path="url(#clip4)"><text fill="#595959" font-family="Calibri,Calibri_MSFontService,sans-serif" font-weight="400" font-size="41" transform="matrix(1 0 0 1 492.112 2211)">0</text></g><g clip-path="url(#clip5)"><text fill="#595959" font-family="Calibri,Calibri_MSFontService,sans-serif" font-weight="400" font-size="41" transform="matrix(1 0 0 1 471.212 2053)">50</text></g><g clip-path="url(#clip6)"><text fill="#595959" font-family="Calibri,Calibri_MSFontService,sans-serif" font-weight="400" font-size="41" transform="matrix(1 0 0 1 450.312 1894)">100</text></g><g clip-path="url(#clip7)"><text fill="#595959" font-family="Calibri,Calibri_MSFontService,sans-serif" font-weight="400" font-size="41" transform="matrix(1 0 0 1 450.312 1735)">150</text></g><g clip-path="url(#clip8)"><text fill="#595959" font-family="Calibri,Calibri_MSFontService,sans-serif" font-weight="400" font-size="41" transform="matrix(1 0 0 1 450.312 1577)">200</text></g><g clip-path="url(#clip9)"><text fill="#595959" font-family="Calibri,Calibri_MSFontService,sans-serif" font-weight="400" font-size="41" transform="matrix(1 0 0 1 450.312 1418)">250</text></g><g clip-path="url(#clip10)"><text fill="#595959" font-family="Calibri,Calibri_MSFontService,sans-serif" font-weight="400" font-size="41" transform="matrix(1 0 0 1 450.312 1260)">300</text></g><g clip-path="url(#clip11)"><text fill="#595959" font-family="Calibri,Calibri_MSFontService,sans-serif" font-weight="400" font-size="41" transform="matrix(0.707107 -0.707107 0.707107 0.707107 477.508 2413)">Lagerarbeiter</text></g><g clip-path="url(#clip12)"><text fill="#595959" font-family="Calibri,Calibri_MSFontService,sans-serif" font-weight="400" font-size="41" transform="matrix(0.707107 -0.707107 0.707107 0.707107 582.486 2461)">Reinigungsberufe</text></g><g clip-path="url(#clip13)"><text fill="#595959" font-family="Calibri,Calibri_MSFontService,sans-serif" font-weight="400" font-size="41" transform="matrix(0.707107 -0.707107 0.707107 0.707107 799.064 2397)">Hotelberufe</text></g><g clip-path="url(#clip14)"><text fill="#595959" font-family="Calibri,Calibri_MSFontService,sans-serif" font-weight="400" font-size="41" transform="matrix(0.707107 -0.707107 0.707107 0.707107 948.459 2400)">Sozialberufe</text></g><g clip-path="url(#clip15)"><text fill="#595959" font-family="Calibri,Calibri_MSFontService,sans-serif" font-weight="400" font-size="41" transform="matrix(0.707107 -0.707107 0.707107 0.707107 1000.22 2501)">Wissenschaftsberufe</text></g><g clip-path="url(#clip16)"><text fill="#595959" font-family="Calibri,Calibri_MSFontService,sans-serif" font-weight="400" font-size="41" transform="matrix(0.707107 -0.707107 0.707107 0.707107 1113.53 2540)">Unternehmensberatung</text></g><g clip-path="url(#clip17)"><text fill="#595959" font-family="Calibri,Calibri_MSFontService,sans-serif" font-weight="400" font-size="41" transform="matrix(0.707107 -0.707107 0.707107 0.707107 1370.47 2435)">kreative Berufe</text></g><g clip-path="url(#clip18)"><text fill="#595959" font-family="Calibri,Calibri_MSFontService,sans-serif" font-weight="400" font-size="41" transform="matrix(0.707107 -0.707107 0.707107 0.707107 1556.15 2402)">Informatiker</text></g><g clip-path="url(#clip19)"><text fill="#595959" font-family="Calibri,Calibri_MSFontService,sans-serif" font-weight="400" font-size="55" transform="matrix(1 0 0 1 758.576 1200)">Wachstumsberufe Deutschland</text></g><rect x="407.5" y="1114.5" width="1401" height="1494" stroke="#D9D9D9" stroke-width="3.4375" stroke-linejoin="round" stroke-miterlimit="10" fill="none"/></g></svg>