<svg width="1653" height="993" xmlns="http://www.w3.org/2000/svg" xmlns:xlink="http://www.w3.org/1999/xlink" xml:space="preserve" overflow="hidden"><defs><clipPath id="clip0"><rect x="2445" y="769" width="1653" height="993"/></clipPath><clipPath id="clip1"><rect x="2446" y="770" width="1650" height="990"/></clipPath><clipPath id="clip2"><rect x="2919" y="820" width="1099" height="837"/></clipPath><clipPath id="clip3"><rect x="2446" y="770" width="1650" height="990"/></clipPath><clipPath id="clip4"><rect x="2446" y="770" width="1650" height="990"/></clipPath><clipPath id="clip5"><rect x="2446" y="770" width="1650" height="990"/></clipPath><clipPath id="clip6"><rect x="2446" y="770" width="1650" height="990"/></clipPath><clipPath id="clip7"><rect x="2446" y="770" width="1650" height="990"/></clipPath><clipPath id="clip8"><rect x="2446" y="770" width="1650" height="990"/></clipPath><clipPath id="clip9"><rect x="2446" y="770" width="1650" height="990"/></clipPath><clipPath id="clip10"><rect x="2446" y="770" width="1650" height="990"/></clipPath><clipPath id="clip11"><rect x="2446" y="770" width="1650" height="990"/></clipPath><clipPath id="clip12"><rect x="2446" y="770" width="1650" height="990"/></clipPath><clipPath id="clip13"><rect x="2446" y="770" width="1650" height="990"/></clipPath><clipPath id="clip14"><rect x="2446" y="770" width="1650" height="990"/></clipPath><clipPath id="clip15"><rect x="2446" y="770" width="1650" height="990"/></clipPath><clipPath id="clip16"><rect x="2446" y="770" width="1650" height="990"/></clipPath><clipPath id="clip17"><rect x="2446" y="770" width="1650" height="990"/></clipPath><clipPath id="clip18"><rect x="2446" y="770" width="1650" height="990"/></clipPath></defs><g clip-path="url(#clip0)" transform="translate(-2445 -769)"><rect x="2446" y="770" width="1650" height="990" fill="#FFFFFF"/><g clip-path="url(#clip1)"><path d="M3101.6 820.5 3101.6 1653.5M3284.61 820.5 3284.61 1653.5M3466.61 820.5 3466.61 1653.5M3649.62 820.5 3649.62 1653.5M3831.63 820.5 3831.63 1653.5M4014.5 820.5 4014.5 1653.5" stroke="#D9D9D9" stroke-width="3.4375" stroke-linejoin="round" stroke-miterlimit="10" fill="none"/></g><g clip-path="url(#clip2)"><path d="M3467.11 1620.05 2919 1620.05 2919 1583.05 3467.11 1583.05ZM3485.11 1516.05 2919 1516.05 2919 1479.05 3485.11 1479.05ZM3503.11 1412.05 2919 1412.05 2919 1375.05 3503.11 1375.05ZM3503.11 1308.04 2919 1308.04 2919 1271.04 3503.11 1271.04ZM3576.12 1203.04 2919 1203.04 2919 1166.04 3576.12 1166.04ZM3576.12 1099.04 2919 1099.04 2919 1062.03 3576.12 1062.03ZM3613.12 995.033 2919 995.033 2919 958.031 3613.12 958.031ZM3905.13 891.029 2919 891.029 2919 854.028 3905.13 854.028Z" fill="#70AD47"/></g><g clip-path="url(#clip3)"><path d="M0 0 0.000360892 833" stroke="#D9D9D9" stroke-width="3.4375" stroke-linejoin="round" stroke-miterlimit="10" fill="none" fill-rule="evenodd" transform="matrix(1 0 0 -1 2919.5 1653.5)"/></g><g clip-path="url(#clip4)"><text fill="#595959" font-family="Calibri,Calibri_MSFontService,sans-serif" font-weight="400" font-size="41" transform="matrix(1 0 0 1 2908.99 1719)">0</text></g><g clip-path="url(#clip5)"><text fill="#595959" font-family="Calibri,Calibri_MSFontService,sans-serif" font-weight="400" font-size="41" transform="matrix(1 0 0 1 3081.07 1719)">50</text></g><g clip-path="url(#clip6)"><text fill="#595959" font-family="Calibri,Calibri_MSFontService,sans-serif" font-weight="400" font-size="41" transform="matrix(1 0 0 1 3253.14 1719)">100</text></g><g clip-path="url(#clip7)"><text fill="#595959" font-family="Calibri,Calibri_MSFontService,sans-serif" font-weight="400" font-size="41" transform="matrix(1 0 0 1 3435.67 1719)">150</text></g><g clip-path="url(#clip8)"><text fill="#595959" font-family="Calibri,Calibri_MSFontService,sans-serif" font-weight="400" font-size="41" transform="matrix(1 0 0 1 3618.19 1719)">200</text></g><g clip-path="url(#clip9)"><text fill="#595959" font-family="Calibri,Calibri_MSFontService,sans-serif" font-weight="400" font-size="41" transform="matrix(1 0 0 1 3800.71 1719)">250</text></g><g clip-path="url(#clip10)"><text fill="#595959" font-family="Calibri,Calibri_MSFontService,sans-serif" font-weight="400" font-size="41" transform="matrix(1 0 0 1 3983.24 1719)">300</text></g><g clip-path="url(#clip11)"><text fill="#595959" font-family="Calibri,Calibri_MSFontService,sans-serif" font-weight="400" font-size="41" transform="matrix(1 0 0 1 2655.17 1613)">Lagerarbeiter</text></g><g clip-path="url(#clip12)"><text fill="#595959" font-family="Calibri,Calibri_MSFontService,sans-serif" font-weight="400" font-size="41" transform="matrix(1 0 0 1 2587.93 1509)">Reinigungsberufe</text></g><g clip-path="url(#clip13)"><text fill="#595959" font-family="Calibri,Calibri_MSFontService,sans-serif" font-weight="400" font-size="41" transform="matrix(1 0 0 1 2678.52 1405)">Hotelberufe</text></g><g clip-path="url(#clip14)"><text fill="#595959" font-family="Calibri,Calibri_MSFontService,sans-serif" font-weight="400" font-size="41" transform="matrix(1 0 0 1 2674.1 1301)">Sozialberufe</text></g><g clip-path="url(#clip15)"><text fill="#595959" font-family="Calibri,Calibri_MSFontService,sans-serif" font-weight="400" font-size="41" transform="matrix(1 0 0 1 2531.6 1197)">Wissenschaftsberufe</text></g><g clip-path="url(#clip16)"><text fill="#595959" font-family="Calibri,Calibri_MSFontService,sans-serif" font-weight="400" font-size="41" transform="matrix(1 0 0 1 2476.15 1092)">Unternehmensberatung</text></g><g clip-path="url(#clip17)"><text fill="#595959" font-family="Calibri,Calibri_MSFontService,sans-serif" font-weight="400" font-size="41" transform="matrix(1 0 0 1 2623.82 988)">kreative Berufe</text></g><g clip-path="url(#clip18)"><text fill="#595959" font-family="Calibri,Calibri_MSFontService,sans-serif" font-weight="400" font-size="41" transform="matrix(1 0 0 1 2670.71 884)">Informatiker</text></g><rect x="2446.5" y="770.5" width="1650" height="990" stroke="#D9D9D9" stroke-width="3.4375" stroke-linejoin="round" stroke-miterlimit="10" fill="none"/></g></svg>